<mxfile host="app.diagrams.net" agent="Mozilla/5.0 (Macintosh; Intel Mac OS X 10_15_7) AppleWebKit/537.36 (KHTML, like Gecko) Chrome/127.0.0.0 Safari/537.36" version="24.7.16">
  <diagram id="C5RBs43oDa-KdzZeNtuy" name="Page-1">
    <mxGraphModel dx="2738" dy="1209" grid="1" gridSize="10" guides="1" tooltips="1" connect="1" arrows="1" fold="1" page="1" pageScale="1" pageWidth="827" pageHeight="1169" math="0" shadow="0">
      <root>
        <mxCell id="WIyWlLk6GJQsqaUBKTNV-0" />
        <mxCell id="WIyWlLk6GJQsqaUBKTNV-1" parent="WIyWlLk6GJQsqaUBKTNV-0" />
        <mxCell id="AmUCOKKAHyZwmvde8uGp-10" style="edgeStyle=orthogonalEdgeStyle;rounded=0;orthogonalLoop=1;jettySize=auto;html=1;exitX=0.5;exitY=1;exitDx=0;exitDy=0;entryX=0.5;entryY=0;entryDx=0;entryDy=0;endArrow=block;endFill=0;" edge="1" parent="WIyWlLk6GJQsqaUBKTNV-1" source="WIyWlLk6GJQsqaUBKTNV-3" target="AmUCOKKAHyZwmvde8uGp-0">
          <mxGeometry relative="1" as="geometry" />
        </mxCell>
        <mxCell id="WIyWlLk6GJQsqaUBKTNV-3" value="Начало" style="rounded=1;whiteSpace=wrap;html=1;fontSize=12;glass=0;strokeWidth=1;shadow=0;" parent="WIyWlLk6GJQsqaUBKTNV-1" vertex="1">
          <mxGeometry x="165" y="80" width="120" height="40" as="geometry" />
        </mxCell>
        <mxCell id="AmUCOKKAHyZwmvde8uGp-11" style="edgeStyle=orthogonalEdgeStyle;rounded=0;orthogonalLoop=1;jettySize=auto;html=1;exitX=0.5;exitY=1;exitDx=0;exitDy=0;entryX=0.5;entryY=0;entryDx=0;entryDy=0;endArrow=block;endFill=0;" edge="1" parent="WIyWlLk6GJQsqaUBKTNV-1" source="AmUCOKKAHyZwmvde8uGp-0" target="AmUCOKKAHyZwmvde8uGp-1">
          <mxGeometry relative="1" as="geometry" />
        </mxCell>
        <mxCell id="AmUCOKKAHyZwmvde8uGp-0" value="Ввод n" style="shape=parallelogram;perimeter=parallelogramPerimeter;whiteSpace=wrap;html=1;fixedSize=1;" vertex="1" parent="WIyWlLk6GJQsqaUBKTNV-1">
          <mxGeometry x="160" y="150" width="130" height="50" as="geometry" />
        </mxCell>
        <mxCell id="AmUCOKKAHyZwmvde8uGp-12" style="edgeStyle=orthogonalEdgeStyle;rounded=0;orthogonalLoop=1;jettySize=auto;html=1;exitX=0.5;exitY=1;exitDx=0;exitDy=0;entryX=0.5;entryY=0;entryDx=0;entryDy=0;endArrow=block;endFill=0;" edge="1" parent="WIyWlLk6GJQsqaUBKTNV-1" source="AmUCOKKAHyZwmvde8uGp-1" target="AmUCOKKAHyZwmvde8uGp-2">
          <mxGeometry relative="1" as="geometry" />
        </mxCell>
        <mxCell id="AmUCOKKAHyZwmvde8uGp-1" value="Создание матрицы matrix[n, n]" style="rounded=0;whiteSpace=wrap;html=1;" vertex="1" parent="WIyWlLk6GJQsqaUBKTNV-1">
          <mxGeometry x="165" y="230" width="120" height="60" as="geometry" />
        </mxCell>
        <mxCell id="AmUCOKKAHyZwmvde8uGp-13" style="edgeStyle=orthogonalEdgeStyle;rounded=0;orthogonalLoop=1;jettySize=auto;html=1;exitX=0.5;exitY=1;exitDx=0;exitDy=0;entryX=0.5;entryY=0;entryDx=0;entryDy=0;endArrow=block;endFill=0;" edge="1" parent="WIyWlLk6GJQsqaUBKTNV-1" source="AmUCOKKAHyZwmvde8uGp-2" target="AmUCOKKAHyZwmvde8uGp-3">
          <mxGeometry relative="1" as="geometry" />
        </mxCell>
        <mxCell id="AmUCOKKAHyZwmvde8uGp-2" value="Ввод элементов&lt;div&gt;матрицы&lt;/div&gt;" style="shape=parallelogram;perimeter=parallelogramPerimeter;whiteSpace=wrap;html=1;fixedSize=1;" vertex="1" parent="WIyWlLk6GJQsqaUBKTNV-1">
          <mxGeometry x="160" y="310" width="130" height="50" as="geometry" />
        </mxCell>
        <mxCell id="AmUCOKKAHyZwmvde8uGp-14" style="edgeStyle=orthogonalEdgeStyle;rounded=0;orthogonalLoop=1;jettySize=auto;html=1;exitX=0.5;exitY=1;exitDx=0;exitDy=0;entryX=0.5;entryY=0;entryDx=0;entryDy=0;endArrow=block;endFill=0;" edge="1" parent="WIyWlLk6GJQsqaUBKTNV-1" source="AmUCOKKAHyZwmvde8uGp-3" target="AmUCOKKAHyZwmvde8uGp-4">
          <mxGeometry relative="1" as="geometry" />
        </mxCell>
        <mxCell id="AmUCOKKAHyZwmvde8uGp-3" value="Инициализация maxDiagonal" style="rounded=0;whiteSpace=wrap;html=1;" vertex="1" parent="WIyWlLk6GJQsqaUBKTNV-1">
          <mxGeometry x="165" y="380" width="120" height="60" as="geometry" />
        </mxCell>
        <mxCell id="AmUCOKKAHyZwmvde8uGp-15" style="edgeStyle=orthogonalEdgeStyle;rounded=0;orthogonalLoop=1;jettySize=auto;html=1;exitX=0.5;exitY=1;exitDx=0;exitDy=0;entryX=0.5;entryY=0;entryDx=0;entryDy=0;endArrow=block;endFill=0;" edge="1" parent="WIyWlLk6GJQsqaUBKTNV-1" source="AmUCOKKAHyZwmvde8uGp-4" target="AmUCOKKAHyZwmvde8uGp-5">
          <mxGeometry relative="1" as="geometry" />
        </mxCell>
        <mxCell id="AmUCOKKAHyZwmvde8uGp-4" value="i = 1" style="rounded=0;whiteSpace=wrap;html=1;" vertex="1" parent="WIyWlLk6GJQsqaUBKTNV-1">
          <mxGeometry x="165" y="460" width="120" height="60" as="geometry" />
        </mxCell>
        <mxCell id="AmUCOKKAHyZwmvde8uGp-16" style="edgeStyle=orthogonalEdgeStyle;rounded=0;orthogonalLoop=1;jettySize=auto;html=1;exitX=1;exitY=0.5;exitDx=0;exitDy=0;entryX=0.5;entryY=0;entryDx=0;entryDy=0;endArrow=block;endFill=0;" edge="1" parent="WIyWlLk6GJQsqaUBKTNV-1" source="AmUCOKKAHyZwmvde8uGp-5" target="AmUCOKKAHyZwmvde8uGp-7">
          <mxGeometry relative="1" as="geometry" />
        </mxCell>
        <mxCell id="AmUCOKKAHyZwmvde8uGp-17" value="true" style="edgeLabel;html=1;align=center;verticalAlign=middle;resizable=0;points=[];" vertex="1" connectable="0" parent="AmUCOKKAHyZwmvde8uGp-16">
          <mxGeometry x="0.2" y="1" relative="1" as="geometry">
            <mxPoint as="offset" />
          </mxGeometry>
        </mxCell>
        <mxCell id="AmUCOKKAHyZwmvde8uGp-39" style="edgeStyle=orthogonalEdgeStyle;rounded=0;orthogonalLoop=1;jettySize=auto;html=1;entryX=1;entryY=0.5;entryDx=0;entryDy=0;endArrow=block;endFill=0;" edge="1" parent="WIyWlLk6GJQsqaUBKTNV-1" source="AmUCOKKAHyZwmvde8uGp-5" target="AmUCOKKAHyZwmvde8uGp-36">
          <mxGeometry relative="1" as="geometry" />
        </mxCell>
        <mxCell id="AmUCOKKAHyZwmvde8uGp-41" value="false" style="edgeLabel;html=1;align=center;verticalAlign=middle;resizable=0;points=[];" vertex="1" connectable="0" parent="AmUCOKKAHyZwmvde8uGp-39">
          <mxGeometry x="-0.0036" y="-3" relative="1" as="geometry">
            <mxPoint x="1" as="offset" />
          </mxGeometry>
        </mxCell>
        <mxCell id="AmUCOKKAHyZwmvde8uGp-5" value="i &amp;lt; n - 1" style="rhombus;whiteSpace=wrap;html=1;" vertex="1" parent="WIyWlLk6GJQsqaUBKTNV-1">
          <mxGeometry x="167.5" y="540" width="115" height="100" as="geometry" />
        </mxCell>
        <mxCell id="AmUCOKKAHyZwmvde8uGp-19" style="edgeStyle=orthogonalEdgeStyle;rounded=0;orthogonalLoop=1;jettySize=auto;html=1;exitX=1;exitY=0.5;exitDx=0;exitDy=0;entryX=0.5;entryY=0;entryDx=0;entryDy=0;endArrow=block;endFill=0;" edge="1" parent="WIyWlLk6GJQsqaUBKTNV-1" source="AmUCOKKAHyZwmvde8uGp-6" target="AmUCOKKAHyZwmvde8uGp-9">
          <mxGeometry relative="1" as="geometry" />
        </mxCell>
        <mxCell id="AmUCOKKAHyZwmvde8uGp-20" value="true" style="edgeLabel;html=1;align=center;verticalAlign=middle;resizable=0;points=[];" vertex="1" connectable="0" parent="AmUCOKKAHyZwmvde8uGp-19">
          <mxGeometry x="-0.1404" y="-1" relative="1" as="geometry">
            <mxPoint as="offset" />
          </mxGeometry>
        </mxCell>
        <mxCell id="AmUCOKKAHyZwmvde8uGp-34" style="edgeStyle=orthogonalEdgeStyle;rounded=0;orthogonalLoop=1;jettySize=auto;html=1;exitX=0;exitY=0.5;exitDx=0;exitDy=0;entryX=1;entryY=0.5;entryDx=0;entryDy=0;endArrow=block;endFill=0;" edge="1" parent="WIyWlLk6GJQsqaUBKTNV-1" source="AmUCOKKAHyZwmvde8uGp-6" target="AmUCOKKAHyZwmvde8uGp-33">
          <mxGeometry relative="1" as="geometry" />
        </mxCell>
        <mxCell id="AmUCOKKAHyZwmvde8uGp-6" value="&lt;meta charset=&quot;utf-8&quot;&gt;&lt;span style=&quot;color: rgb(0, 0, 0); font-family: Helvetica; font-size: 12px; font-style: normal; font-variant-ligatures: normal; font-variant-caps: normal; font-weight: 400; letter-spacing: normal; orphans: 2; text-align: center; text-indent: 0px; text-transform: none; widows: 2; word-spacing: 0px; -webkit-text-stroke-width: 0px; white-space: normal; background-color: rgb(251, 251, 251); text-decoration-thickness: initial; text-decoration-style: initial; text-decoration-color: initial; display: inline !important; float: none;&quot;&gt;j &amp;lt; i -1&lt;/span&gt;" style="rhombus;whiteSpace=wrap;html=1;" vertex="1" parent="WIyWlLk6GJQsqaUBKTNV-1">
          <mxGeometry x="282.5" y="770" width="115" height="100" as="geometry" />
        </mxCell>
        <mxCell id="AmUCOKKAHyZwmvde8uGp-18" style="edgeStyle=orthogonalEdgeStyle;rounded=0;orthogonalLoop=1;jettySize=auto;html=1;exitX=0.5;exitY=1;exitDx=0;exitDy=0;entryX=0.5;entryY=0;entryDx=0;entryDy=0;endArrow=block;endFill=0;" edge="1" parent="WIyWlLk6GJQsqaUBKTNV-1" source="AmUCOKKAHyZwmvde8uGp-7" target="AmUCOKKAHyZwmvde8uGp-6">
          <mxGeometry relative="1" as="geometry" />
        </mxCell>
        <mxCell id="AmUCOKKAHyZwmvde8uGp-7" value="i = 1" style="rounded=0;whiteSpace=wrap;html=1;" vertex="1" parent="WIyWlLk6GJQsqaUBKTNV-1">
          <mxGeometry x="280" y="680" width="120" height="60" as="geometry" />
        </mxCell>
        <mxCell id="AmUCOKKAHyZwmvde8uGp-8" style="edgeStyle=orthogonalEdgeStyle;rounded=0;orthogonalLoop=1;jettySize=auto;html=1;exitX=0.5;exitY=1;exitDx=0;exitDy=0;" edge="1" parent="WIyWlLk6GJQsqaUBKTNV-1" source="AmUCOKKAHyZwmvde8uGp-7" target="AmUCOKKAHyZwmvde8uGp-7">
          <mxGeometry relative="1" as="geometry" />
        </mxCell>
        <mxCell id="AmUCOKKAHyZwmvde8uGp-22" style="edgeStyle=orthogonalEdgeStyle;rounded=0;orthogonalLoop=1;jettySize=auto;html=1;exitX=1;exitY=0.5;exitDx=0;exitDy=0;entryX=0.5;entryY=0;entryDx=0;entryDy=0;" edge="1" parent="WIyWlLk6GJQsqaUBKTNV-1" source="AmUCOKKAHyZwmvde8uGp-9" target="AmUCOKKAHyZwmvde8uGp-21">
          <mxGeometry relative="1" as="geometry" />
        </mxCell>
        <mxCell id="AmUCOKKAHyZwmvde8uGp-23" value="true" style="edgeLabel;html=1;align=center;verticalAlign=middle;resizable=0;points=[];" vertex="1" connectable="0" parent="AmUCOKKAHyZwmvde8uGp-22">
          <mxGeometry x="-0.2348" relative="1" as="geometry">
            <mxPoint as="offset" />
          </mxGeometry>
        </mxCell>
        <mxCell id="AmUCOKKAHyZwmvde8uGp-30" style="edgeStyle=orthogonalEdgeStyle;rounded=0;orthogonalLoop=1;jettySize=auto;html=1;exitX=0;exitY=0.5;exitDx=0;exitDy=0;entryX=0.5;entryY=1;entryDx=0;entryDy=0;endArrow=block;endFill=0;" edge="1" parent="WIyWlLk6GJQsqaUBKTNV-1" source="AmUCOKKAHyZwmvde8uGp-9" target="AmUCOKKAHyZwmvde8uGp-29">
          <mxGeometry relative="1" as="geometry">
            <Array as="points">
              <mxPoint x="420" y="970" />
              <mxPoint x="340" y="970" />
            </Array>
          </mxGeometry>
        </mxCell>
        <mxCell id="AmUCOKKAHyZwmvde8uGp-32" value="false" style="edgeLabel;html=1;align=center;verticalAlign=middle;resizable=0;points=[];" vertex="1" connectable="0" parent="AmUCOKKAHyZwmvde8uGp-30">
          <mxGeometry x="-0.6121" y="6" relative="1" as="geometry">
            <mxPoint as="offset" />
          </mxGeometry>
        </mxCell>
        <mxCell id="AmUCOKKAHyZwmvde8uGp-9" value="matrix[i, j] &amp;gt; maxDiagonal" style="rhombus;whiteSpace=wrap;html=1;" vertex="1" parent="WIyWlLk6GJQsqaUBKTNV-1">
          <mxGeometry x="420" y="860" width="110" height="90" as="geometry" />
        </mxCell>
        <mxCell id="AmUCOKKAHyZwmvde8uGp-24" style="edgeStyle=orthogonalEdgeStyle;rounded=0;orthogonalLoop=1;jettySize=auto;html=1;exitX=0.5;exitY=1;exitDx=0;exitDy=0;endArrow=block;endFill=0;entryX=0.5;entryY=1;entryDx=0;entryDy=0;" edge="1" parent="WIyWlLk6GJQsqaUBKTNV-1" source="AmUCOKKAHyZwmvde8uGp-21" target="AmUCOKKAHyZwmvde8uGp-29">
          <mxGeometry relative="1" as="geometry">
            <mxPoint x="340" y="870" as="targetPoint" />
          </mxGeometry>
        </mxCell>
        <mxCell id="AmUCOKKAHyZwmvde8uGp-21" value="maxDiagonal = matrix[i, j]&amp;nbsp;" style="rounded=0;whiteSpace=wrap;html=1;" vertex="1" parent="WIyWlLk6GJQsqaUBKTNV-1">
          <mxGeometry x="550" y="940" width="120" height="60" as="geometry" />
        </mxCell>
        <mxCell id="AmUCOKKAHyZwmvde8uGp-31" style="edgeStyle=orthogonalEdgeStyle;rounded=0;orthogonalLoop=1;jettySize=auto;html=1;exitX=0.5;exitY=0;exitDx=0;exitDy=0;entryX=0.5;entryY=1;entryDx=0;entryDy=0;endArrow=block;endFill=0;" edge="1" parent="WIyWlLk6GJQsqaUBKTNV-1" source="AmUCOKKAHyZwmvde8uGp-29" target="AmUCOKKAHyZwmvde8uGp-6">
          <mxGeometry relative="1" as="geometry" />
        </mxCell>
        <mxCell id="AmUCOKKAHyZwmvde8uGp-29" value="j++" style="rounded=0;whiteSpace=wrap;html=1;" vertex="1" parent="WIyWlLk6GJQsqaUBKTNV-1">
          <mxGeometry x="280" y="890" width="120" height="60" as="geometry" />
        </mxCell>
        <mxCell id="AmUCOKKAHyZwmvde8uGp-35" style="edgeStyle=orthogonalEdgeStyle;rounded=0;orthogonalLoop=1;jettySize=auto;html=1;exitX=0.5;exitY=0;exitDx=0;exitDy=0;entryX=0.5;entryY=1;entryDx=0;entryDy=0;endArrow=block;endFill=0;" edge="1" parent="WIyWlLk6GJQsqaUBKTNV-1" source="AmUCOKKAHyZwmvde8uGp-33" target="AmUCOKKAHyZwmvde8uGp-5">
          <mxGeometry relative="1" as="geometry" />
        </mxCell>
        <mxCell id="AmUCOKKAHyZwmvde8uGp-33" value="i++" style="rounded=0;whiteSpace=wrap;html=1;" vertex="1" parent="WIyWlLk6GJQsqaUBKTNV-1">
          <mxGeometry x="130" y="790" width="120" height="60" as="geometry" />
        </mxCell>
        <mxCell id="AmUCOKKAHyZwmvde8uGp-40" style="edgeStyle=orthogonalEdgeStyle;rounded=0;orthogonalLoop=1;jettySize=auto;html=1;exitX=0.5;exitY=1;exitDx=0;exitDy=0;entryX=0.5;entryY=0;entryDx=0;entryDy=0;endArrow=block;endFill=0;" edge="1" parent="WIyWlLk6GJQsqaUBKTNV-1" source="AmUCOKKAHyZwmvde8uGp-36">
          <mxGeometry relative="1" as="geometry">
            <mxPoint x="-30" y="660" as="targetPoint" />
          </mxGeometry>
        </mxCell>
        <mxCell id="AmUCOKKAHyZwmvde8uGp-36" value="Вычисление суммы элементов на главной диагонали и выше" style="rounded=0;whiteSpace=wrap;html=1;" vertex="1" parent="WIyWlLk6GJQsqaUBKTNV-1">
          <mxGeometry x="-90" y="560" width="120" height="60" as="geometry" />
        </mxCell>
        <mxCell id="AmUCOKKAHyZwmvde8uGp-87" style="edgeStyle=orthogonalEdgeStyle;rounded=0;orthogonalLoop=1;jettySize=auto;html=1;exitX=0.5;exitY=1;exitDx=0;exitDy=0;entryX=0.5;entryY=0;entryDx=0;entryDy=0;endArrow=block;endFill=0;" edge="1" parent="WIyWlLk6GJQsqaUBKTNV-1" source="AmUCOKKAHyZwmvde8uGp-85" target="AmUCOKKAHyZwmvde8uGp-86">
          <mxGeometry relative="1" as="geometry" />
        </mxCell>
        <mxCell id="AmUCOKKAHyZwmvde8uGp-85" value="вывод результата" style="shape=parallelogram;perimeter=parallelogramPerimeter;whiteSpace=wrap;html=1;fixedSize=1;" vertex="1" parent="WIyWlLk6GJQsqaUBKTNV-1">
          <mxGeometry x="-95" y="660" width="130" height="50" as="geometry" />
        </mxCell>
        <mxCell id="AmUCOKKAHyZwmvde8uGp-86" value="конец&amp;nbsp;" style="rounded=1;whiteSpace=wrap;html=1;fontSize=12;glass=0;strokeWidth=1;shadow=0;" vertex="1" parent="WIyWlLk6GJQsqaUBKTNV-1">
          <mxGeometry x="165" y="1040" width="120" height="40" as="geometry" />
        </mxCell>
      </root>
    </mxGraphModel>
  </diagram>
</mxfile>
